<mxfile host="app.diagrams.net" modified="2022-12-23T17:50:53.378Z" agent="5.0 (X11; Linux x86_64) AppleWebKit/537.36 (KHTML, like Gecko) SamsungBrowser/19.0 Chrome/102.0.5005.125 Safari/537.36" version="20.7.4" etag="wB4qd_nUDyUhJAs7bJby" type="github">
  <diagram id="7uUlLxbYwlzRWvXOqhOP" name="Page-1">
    <mxGraphModel dx="716" dy="423" grid="1" gridSize="10" guides="1" tooltips="1" connect="1" arrows="1" fold="1" page="1" pageScale="1" pageWidth="827" pageHeight="1169" math="0" shadow="0">
      <root>
        <mxCell id="0" />
        <mxCell id="1" parent="0" />
        <mxCell id="Xq880m5unMAi2xi6vODy-1" value="الزبون" style="shape=umlActor;verticalLabelPosition=bottom;verticalAlign=top;html=1;outlineConnect=0;" vertex="1" parent="1">
          <mxGeometry x="60" y="200" width="30" height="60" as="geometry" />
        </mxCell>
        <mxCell id="Xq880m5unMAi2xi6vODy-2" value="بوابة المنتجات" style="whiteSpace=wrap;html=1;aspect=fixed;verticalAlign=top;" vertex="1" parent="1">
          <mxGeometry x="120" y="40" width="390" height="390" as="geometry" />
        </mxCell>
      </root>
    </mxGraphModel>
  </diagram>
</mxfile>
